/vscmnt/brussel_pixiu_data/_data_brussel/112/vsc11236/PredSimResults/SUBJ11mtu3D/weighted-LRposFixed/expIG/worker_05.mot
version=1
nRows=7
nColumns=50
inDegrees=yes
endheader
                time	         pelvis_tilt	         pelvis_list	     pelvis_rotation	           pelvis_tx	           pelvis_ty	           pelvis_tz	       hip_flexion_r	     hip_adduction_r	      hip_rotation_r	        knee_angle_r	       ankle_angle_r	         mtp_angle_r	       hip_flexion_l	     hip_adduction_l	      hip_rotation_l	        knee_angle_l	       ankle_angle_l	         mtp_angle_l	    lumbar_extension	      lumbar_bending	     lumbar_rotation	 ercspn_r/activation	 intobl_r/activation	 extobl_r/activation	    abd_r/activation	    add_r/activation	hamstrings_r/activation	bifemsh_r/activation	glut_max_r/activation	iliopsoas_r/activation	rect_fem_r/activation	  vasti_r/activation	gastroc_r/activation	 soleus_r/activation	tib_ant_r/activation	 ercspn_l/activation	 intobl_l/activation	 extobl_l/activation	    abd_l/activation	    add_l/activation	hamstrings_l/activation	bifemsh_l/activation	glut_max_l/activation	iliopsoas_l/activation	rect_fem_l/activation	  vasti_l/activation	gastroc_l/activation	 soleus_l/activation	tib_ant_l/activation	
          1.44162162	         -5.77256109	         -5.11120436	          8.45251469	          1.39837297	          0.94418758	         -0.01873889	         30.20431528	          1.48624897	         -4.26618781	         -3.68064269	          5.42909299	          0.20641151	        -11.22792799	         -5.47976441	          5.39097310	         -6.59911612	         13.14237734	         24.68372901	         -3.80908911	          2.87722826	         -1.96097031	          0.09241750	          0.15650900	          0.02934828	          0.01240267	          0.09571818	          0.04937790	          0.19052756	          0.01265545	          0.09680688	          0.01538268	          0.00999999	          0.01335824	          0.00999999	          0.27823520	          0.02601321	          0.00999999	          0.00999999	          0.05707136	          0.02476035	          0.02635898	          0.14662096	          0.06944586	          0.44792400	          0.01000001	          0.01000000	          0.36941002	          0.26642054	          0.01140068	
          1.45603784	         -5.92137009	         -4.91681110	          8.49177274	          1.41555516	          0.94181649	         -0.01786518	         30.34768167	          1.49124881	         -4.25820860	         -5.21124314	          4.99078698	          0.21422283	        -11.57079412	         -5.35766001	          4.98308864	         -7.66740086	         12.79701902	         26.52031097	         -3.51681213	          3.11821018	         -2.15401495	          0.07451401	          0.12864107	          0.02366281	          0.01000000	          0.14819814	          0.04794125	          0.15361780	          0.04993547	          0.07805305	          0.01240269	          0.01000000	          0.02132199	          0.01538270	          0.28824852	          0.06018884	          0.00999999	          0.01000000	          0.04601527	          0.05147099	          0.02125263	          0.11821695	          0.05599252	          0.45951476	          0.01000003	          0.01000000	          0.34527046	          0.25824687	          0.00999999	
          1.47045405	         -6.04683844	         -4.71086135	          8.47784304	          1.43319665	          0.93973550	         -0.01690434	         30.28756438	          1.48606177	         -4.22268571	         -6.69540442	          4.53755015	          0.18669358	        -11.77684279	         -5.21157320	          4.55128992	         -9.07169828	         12.33982253	         28.45570404	         -3.20508492	          3.36382718	         -2.33088191	          0.06760536	          0.10372021	          0.01907875	          0.04374482	          0.14319313	          0.05572097	          0.12385836	          0.07595055	          0.06293229	          0.01000000	          0.00999999	          0.01719140	          0.01240270	          0.32880650	          0.07148263	          0.00999999	          0.01000000	          0.03710100	          0.05080175	          0.02490434	          0.09531548	          0.04514542	          0.45251420	          0.01000002	          0.01000002	          0.31646198	          0.24362005	          0.00999999	
          1.48487027	         -6.15051565	         -4.49802557	          8.41238716	          1.45100538	          0.93821862	         -0.01583607	         30.04205348	          1.48332038	         -4.22077196	         -7.87910848	          3.92339443	          0.15862826	        -11.73751670	         -5.04336556	          4.10819331	        -10.94821691	         11.71047741	         30.51166603	         -2.90211714	          3.61337208	         -2.48393895	          0.07984108	          0.08362710	          0.01538274	          0.09612737	          0.16411095	          0.05424499	          0.09986402	          0.09867952	          0.05074079	          0.01000000	          0.00999999	          0.01386102	          0.01000000	          0.36003714	          0.09651223	          0.00999999	          0.01000000	          0.02991364	          0.05459542	          0.02521035	          0.07685058	          0.03639967	          0.43655361	          0.01000004	          0.01277378	          0.27078720	          0.21440527	          0.00999999	
          1.49928649	         -6.23056353	         -4.28314576	          8.29955161	          1.46874775	          0.93744789	         -0.01467690	         29.69962999	          1.48746757	         -4.27073555	         -8.95087030	          3.40219285	          0.12287827	        -11.38406810	         -4.85617413	          3.64737858	        -13.37774458	         10.86348974	         32.65194925	         -2.62602289	          3.87280087	         -2.60688320	          0.07732550	          0.06742652	          0.01240273	          0.12309011	          0.17746448	          0.04990211	          0.08051795	          0.11035894	          0.04091107	          0.01000000	          0.02700012	          0.01117582	          0.01000005	          0.38448131	          0.11998796	          0.00999999	          0.01000000	          0.02411865	          0.06898778	          0.02809863	          0.06196277	          0.02934817	          0.40135302	          0.01000001	          0.01029920	          0.21832919	          0.17286980	          0.00999999	
          1.51370270	         -6.28507914	         -4.07001226	          8.14247492	          1.48626500	          0.93744858	         -0.01345077	         29.29144448	          1.49846275	         -4.36345164	         -9.96041338	          3.03376892	          0.09801538	        -10.68044561	         -4.65548693	          3.15362359	        -16.39960918	          9.78627616	         34.76261767	         -2.38722772	          4.14644194	         -2.69568791	          0.07575592	          0.05436437	          0.01000002	          0.13226107	          0.15417375	          0.05368689	          0.06491969	          0.10185697	          0.03298561	          0.01000000	          0.08302235	          0.01000001	          0.01000000	          0.39603096	          0.12757061	          0.00999999	          0.01000000	          0.01944628	          0.08463260	          0.03709018	          0.04995910	          0.02366272	          0.34984324	          0.01000000	          0.00999999	          0.17603356	          0.13938075	          0.00999999	
          1.52811892	         -6.31458959	         -3.85187565	          7.94552341	          1.50345202	          0.93817869	         -0.01219659	         28.78745132	          1.51262016	         -4.45697490	        -10.83050866	          2.78130904	          0.07431976	         -9.63704308	         -4.44147780	          2.61359790	        -19.96185837	          8.46108866	         36.64541907	         -2.19244887	          4.42838614	         -2.74941376	          0.06524708	          0.04383269	          0.00999999	          0.13298223	          0.12430658	          0.05148739	          0.05234318	          0.09799853	          0.02659550	          0.01000000	          0.14306157	          0.01000002	          0.01000001	          0.39827938	          0.13820452	          0.00999999	          0.01000000	          0.01567907	          0.10054645	          0.03639963	          0.04880248	          0.01907868	          0.29024325	          0.00999999	          0.00999999	          0.14193161	          0.11237933	          0.00999999	
